<svg width="1170" height="1193" viewBox="0 0 1170 1193" fill="none" xmlns="http://www.w3.org/2000/svg">
<mask id="mask0_1_111" style="mask-type:luminance" maskUnits="userSpaceOnUse" x="289" y="0" width="484" height="786">
<path d="M773 0H289V786H773V0Z" fill="white"/>
</mask>
<g mask="url(#mask0_1_111)">
<path d="M687.279 84.9827H649.222C648.861 84.9828 648.507 84.8705 648.208 84.6603C647.909 84.4502 647.679 84.1523 647.548 83.8058C647.418 83.4593 647.392 83.0804 647.477 82.7191C647.561 82.3577 647.75 82.0311 648.018 81.7817L682.624 49.6768H650.65C650.173 49.6768 649.717 49.4832 649.381 49.1384C649.044 48.7936 648.856 48.3261 648.856 47.8385C648.856 47.3509 649.044 46.8832 649.381 46.5385C649.717 46.1937 650.173 46 650.65 46H687.279C687.642 46 687.996 46.1124 688.295 46.3225C688.594 46.5326 688.824 46.8306 688.954 47.1771C689.085 47.5236 689.109 47.9024 689.026 48.2637C688.942 48.625 688.753 48.9518 688.485 49.2011L653.878 81.3058H687.279C687.756 81.3058 688.212 81.4996 688.549 81.8443C688.885 82.1891 689.075 82.6568 689.075 83.1444C689.075 83.6319 688.885 84.0995 688.549 84.4442C688.212 84.789 687.756 84.9827 687.279 84.9827Z" fill="#FB2576"/>
<path d="M521.832 104.965H483.776C483.415 104.965 483.06 104.853 482.761 104.643C482.462 104.433 482.232 104.135 482.101 103.788C481.971 103.442 481.945 103.063 482.03 102.702C482.113 102.34 482.303 102.014 482.571 101.764L517.177 69.6595H485.204C484.727 69.6595 484.27 69.4659 483.935 69.121C483.598 68.7763 483.41 68.3085 483.41 67.821C483.41 67.3334 483.598 66.8659 483.935 66.5211C484.27 66.1762 484.727 65.9826 485.204 65.9826H521.832C522.195 65.9826 522.55 66.095 522.849 66.3051C523.148 66.5153 523.378 66.8131 523.507 67.1596C523.639 67.5062 523.663 67.8849 523.58 68.2463C523.495 68.6075 523.307 68.9345 523.039 69.1837L488.431 101.289H521.832C522.309 101.289 522.766 101.482 523.103 101.827C523.438 102.172 523.628 102.639 523.628 103.127C523.628 103.614 523.438 104.082 523.103 104.427C522.766 104.772 522.309 104.965 521.832 104.965Z" fill="#FB2576"/>
<path d="M617 174.34H578.944C578.581 174.34 578.228 174.224 577.929 174.007C577.63 173.792 577.4 173.486 577.269 173.13C577.139 172.773 577.113 172.384 577.198 172.013C577.281 171.641 577.471 171.305 577.739 171.049L612.345 138.053H580.371C579.894 138.053 579.438 137.854 579.103 137.499C578.766 137.145 578.575 136.664 578.575 136.163C578.575 135.662 578.766 135.181 579.103 134.827C579.438 134.473 579.894 134.274 580.371 134.274H617C617.363 134.274 617.717 134.389 618.016 134.605C618.315 134.821 618.545 135.127 618.675 135.483C618.806 135.84 618.83 136.229 618.747 136.6C618.663 136.972 618.474 137.307 618.205 137.564L583.599 170.56H617C617.477 170.56 617.933 170.759 618.27 171.113C618.606 171.469 618.796 171.949 618.796 172.45C618.796 172.952 618.606 173.431 618.27 173.785C617.933 174.14 617.477 174.34 617 174.34Z" fill="#FB2576"/>
<path d="M531 731.857C664.653 731.857 773 627.624 773 499.044C773 370.466 664.653 266.231 531 266.231C397.347 266.231 289 370.466 289 499.044C289 627.624 397.347 731.857 531 731.857Z" fill="#E6E6E6"/>
<path d="M739.232 499.044C739.257 530.303 731.666 561.131 717.072 589.058C702.476 616.987 681.28 641.234 655.186 659.859C653.442 661.115 651.663 662.338 649.872 663.53C614.977 686.865 573.497 699.371 531 699.371C488.503 699.371 447.023 686.865 412.128 663.53C410.337 662.338 408.56 661.115 406.814 659.859C380.737 641.217 359.555 616.967 344.962 589.043C330.368 561.12 322.768 530.299 322.768 499.044C322.768 467.789 330.368 436.97 344.962 409.046C359.555 381.122 380.737 356.871 406.814 338.23C408.56 336.974 410.337 335.749 412.128 334.56C447.023 311.225 488.503 298.716 531 298.716C573.497 298.716 614.977 311.225 649.872 334.56C651.663 335.749 653.442 336.974 655.186 338.23C681.28 356.854 702.476 381.102 717.072 409.029C731.666 436.956 739.257 467.786 739.232 499.044Z" fill="white"/>
<path d="M531 682.046C636.057 682.046 721.224 600.113 721.224 499.044C721.224 397.976 636.057 316.042 531 316.042C425.943 316.042 340.778 397.976 340.778 499.044C340.778 600.113 425.943 682.046 531 682.046Z" fill="#FB2576"/>
<path opacity="0.2" d="M531.496 316.554C528.613 316.554 525.747 316.626 522.895 316.748C570.973 320.812 615.646 342.307 647.867 376.876C680.086 411.445 697.442 456.506 696.417 502.926C695.394 549.346 676.067 593.657 642.351 626.879C608.635 660.103 563.053 679.753 514.84 681.851C520.33 682.309 525.883 682.557 531.496 682.557C581.946 682.557 630.331 663.276 666.005 628.957C701.679 594.638 721.72 548.09 721.72 499.555C721.72 451.02 701.679 404.474 666.005 370.155C630.331 335.834 581.946 316.554 531.496 316.554Z" fill="#150050"/>
<path d="M531.563 303.048C529.921 303.05 528.348 303.679 527.189 304.796C526.029 305.911 525.375 307.425 525.372 309.004V334.992C525.372 336.572 526.025 338.086 527.185 339.203C528.347 340.32 529.921 340.949 531.563 340.949C533.206 340.949 534.78 340.32 535.94 339.203C537.102 338.086 537.754 336.572 537.754 334.992V309.004C537.752 307.425 537.098 305.911 535.937 304.796C534.777 303.679 533.204 303.05 531.563 303.048Z" fill="white"/>
<path d="M655.186 338.23C653.442 336.974 651.663 335.749 649.874 334.56C648.799 334.492 647.725 334.695 646.759 335.149C645.791 335.602 644.963 336.292 644.358 337.148L629.152 358.62C628.227 359.925 627.879 361.53 628.185 363.082C628.493 364.633 629.427 366.005 630.784 366.893C632.14 367.782 633.808 368.116 635.421 367.822C637.034 367.527 638.458 366.628 639.383 365.323L654.589 343.849C655.168 343.035 655.526 342.094 655.63 341.112C655.734 340.131 655.582 339.14 655.186 338.23Z" fill="white"/>
<path d="M724.273 436.141C723.967 435.418 723.516 434.759 722.946 434.203C722.375 433.645 721.696 433.204 720.947 432.899C720.199 432.596 719.397 432.437 718.585 432.432C717.772 432.427 716.967 432.576 716.215 432.871L691.181 442.649C689.662 443.244 688.45 444.396 687.812 445.851C687.175 447.305 687.164 448.943 687.781 450.406C688.399 451.869 689.595 453.036 691.105 453.649C692.618 454.263 694.321 454.277 695.842 453.684L720.875 443.905C722.393 443.307 723.603 442.154 724.24 440.699C724.878 439.243 724.889 437.605 724.273 436.141Z" fill="white"/>
<path d="M432.85 358.62L417.644 337.148C417.037 336.292 416.209 335.602 415.243 335.149C414.275 334.695 413.201 334.492 412.128 334.56C410.337 335.749 408.56 336.974 406.814 338.23C406.42 339.14 406.266 340.131 406.37 341.112C406.475 342.094 406.833 343.035 407.411 343.849L422.619 365.323C423.542 366.628 424.968 367.527 426.58 367.822C428.193 368.116 429.861 367.782 431.216 366.893C432.573 366.005 433.509 364.633 433.814 363.082C434.12 361.53 433.773 359.925 432.85 358.62Z" fill="white"/>
<path d="M370.818 442.649L345.785 432.871C344.264 432.277 342.561 432.288 341.049 432.902C339.536 433.516 338.34 434.685 337.721 436.147C337.104 437.61 337.115 439.25 337.754 440.704C338.392 442.159 339.606 443.311 341.125 443.905L366.158 453.684C367.679 454.277 369.382 454.263 370.893 453.649C372.405 453.036 373.6 451.869 374.219 450.406C374.836 448.943 374.825 447.305 374.187 445.851C373.55 444.396 372.338 443.244 370.818 442.649Z" fill="white"/>
<path d="M531.563 657.141C529.921 657.144 528.348 657.771 527.189 658.888C526.029 660.005 525.375 661.518 525.372 663.096V689.085C525.372 690.664 526.025 692.18 527.185 693.297C528.347 694.414 529.921 695.041 531.563 695.041C533.206 695.041 534.78 694.414 535.94 693.297C537.102 692.18 537.754 690.664 537.754 689.085V663.096C537.752 661.518 537.098 660.005 535.937 658.888C534.777 657.771 533.204 657.144 531.563 657.141Z" fill="white"/>
<path d="M654.589 654.238L639.383 632.766C638.925 632.119 638.339 631.567 637.66 631.137C636.98 630.708 636.22 630.413 635.421 630.268C634.623 630.121 633.802 630.129 633.006 630.288C632.21 630.447 631.454 630.756 630.784 631.196C630.111 631.636 629.536 632.199 629.09 632.853C628.645 633.506 628.338 634.239 628.185 635.007C628.035 635.775 628.042 636.564 628.206 637.33C628.372 638.095 628.694 638.823 629.15 639.468L644.358 660.942C644.963 661.797 645.791 662.486 646.757 662.939C647.725 663.394 648.799 663.598 649.872 663.53C651.663 662.338 653.442 661.115 655.186 659.858C655.582 658.948 655.734 657.957 655.63 656.975C655.525 655.994 655.167 655.052 654.589 654.238Z" fill="white"/>
<path d="M720.875 554.183L695.842 544.405C694.321 543.811 692.616 543.823 691.105 544.437C689.593 545.05 688.395 546.217 687.778 547.681C687.161 549.144 687.171 550.782 687.811 552.239C688.449 553.693 689.66 554.845 691.181 555.439L716.215 565.217C717.736 565.811 719.438 565.797 720.949 565.184C722.462 564.568 723.656 563.401 724.275 561.94C724.892 560.478 724.88 558.839 724.244 557.385C723.606 555.93 722.394 554.779 720.875 554.183Z" fill="white"/>
<path d="M431.216 631.196C429.861 630.308 428.191 629.973 426.58 630.268C424.968 630.562 423.542 631.461 422.619 632.767L407.411 654.238C406.833 655.053 406.475 655.994 406.37 656.975C406.266 657.957 406.42 658.948 406.814 659.858C408.56 661.116 410.337 662.338 412.128 663.53C413.201 663.598 414.275 663.394 415.243 662.939C416.209 662.486 417.037 661.797 417.644 660.942L432.85 639.468C433.306 638.823 433.628 638.096 433.794 637.33C433.96 636.564 433.967 635.775 433.814 635.007C433.662 634.239 433.356 633.506 432.91 632.853C432.464 632.199 431.889 631.636 431.216 631.196Z" fill="white"/>
<path d="M374.219 547.675C373.913 546.952 373.461 546.292 372.891 545.736C372.321 545.18 371.641 544.738 370.893 544.433C370.144 544.131 369.341 543.972 368.528 543.967C367.716 543.962 366.912 544.111 366.158 544.405L341.125 554.183C339.606 554.779 338.394 555.93 337.758 557.385C337.12 558.839 337.108 560.478 337.727 561.94C338.344 563.402 339.54 564.568 341.051 565.184C342.562 565.798 344.266 565.811 345.785 565.217L370.818 555.439C372.338 554.84 373.548 553.688 374.186 552.232C374.822 550.778 374.834 549.139 374.219 547.675Z" fill="white"/>
<path d="M540.428 505.006C537.975 507.316 534.67 508.593 531.238 508.562C527.806 508.529 524.528 507.188 522.122 504.834L444.103 428.292C442.912 427.126 441.973 425.744 441.337 424.227C440.703 422.709 440.385 421.088 440.4 419.453C440.418 417.816 440.769 416.201 441.434 414.695C442.1 413.191 443.068 411.828 444.281 410.683C445.494 409.537 446.931 408.634 448.507 408.023C450.084 407.411 451.771 407.105 453.47 407.122C455.171 407.138 456.851 407.476 458.414 408.116C459.978 408.756 461.396 409.686 462.587 410.855L540.606 487.396C543.007 489.756 544.336 492.936 544.301 496.237C544.268 499.539 542.875 502.693 540.428 505.006Z" fill="#3F3D56"/>
<path d="M655.215 613.179C653.637 614.705 651.493 615.569 649.255 615.577C647.016 615.585 644.866 614.74 643.276 613.224L525.019 500.349C523.432 498.832 522.537 496.77 522.528 494.617C522.521 492.465 523.401 490.396 524.978 488.869C526.554 487.34 528.696 486.476 530.933 486.468C533.171 486.458 535.321 487.303 536.91 488.818L655.168 601.694C656.755 603.211 657.651 605.273 657.659 607.427C657.668 609.58 656.79 611.649 655.215 613.179Z" fill="#3F3D56"/>
<path d="M531 513.121C539.081 513.121 545.632 506.819 545.632 499.044C545.632 491.27 539.081 484.967 531 484.967C522.919 484.967 516.368 491.27 516.368 499.044C516.368 506.819 522.919 513.121 531 513.121Z" fill="#CCCCCC"/>
<path d="M430.21 254.947C407.749 288.919 373.48 311.463 331.217 326.274C330.38 326.877 329.431 327.314 328.42 327.562C327.409 327.81 326.358 327.865 325.324 327.722C324.292 327.58 323.298 327.242 322.401 326.731C321.502 326.22 320.719 325.541 320.094 324.739C297.136 295.25 302.32 253.105 332.619 230.571C339.944 225.134 348.319 221.149 357.258 218.851C366.196 216.552 375.522 215.985 384.69 217.181C393.859 218.376 402.69 221.313 410.669 225.819C418.648 230.326 425.618 236.311 431.172 243.43L431.808 244.246C432.433 245.05 432.888 245.963 433.146 246.936C433.405 247.909 433.46 248.92 433.313 249.915C433.165 250.908 432.814 251.864 432.281 252.728C431.751 253.59 431.045 254.345 430.21 254.947Z" fill="#E6E6E6"/>
<path d="M630.828 243.43C636.382 236.311 643.352 230.326 651.331 225.819C659.31 221.313 668.141 218.376 677.31 217.181C686.478 215.985 695.804 216.552 704.742 218.851C713.681 221.149 722.056 225.134 729.381 230.571C759.68 253.105 764.864 295.25 741.906 324.739C741.281 325.541 740.498 326.22 739.601 326.731C738.702 327.242 737.709 327.58 736.676 327.722C735.644 327.865 734.591 327.81 733.58 327.562C732.569 327.314 731.62 326.877 730.785 326.274C691.55 311.824 659.374 286.816 631.79 254.947C630.102 253.731 628.988 251.92 628.687 249.915C628.388 247.908 628.929 245.869 630.192 244.246L630.828 243.43Z" fill="#E6E6E6"/>
<path d="M675.075 314.959C685.641 314.959 694.208 306.717 694.208 296.55C694.208 286.384 685.641 278.143 675.075 278.143C664.506 278.143 655.939 286.384 655.939 296.55C655.939 306.717 664.506 314.959 675.075 314.959Z" fill="#E6E6E6"/>
<path d="M529.875 271.645C540.441 271.645 549.01 263.404 549.01 253.238C549.01 243.071 540.441 234.829 529.875 234.829C519.306 234.829 510.739 243.071 510.739 253.238C510.739 263.404 519.306 271.645 529.875 271.645Z" fill="#E6E6E6"/>
<path d="M391.428 312.793C401.997 312.793 410.563 304.553 410.563 294.386C410.563 284.219 401.997 275.977 391.428 275.977C380.86 275.977 372.293 284.219 372.293 294.386C372.293 304.553 380.86 312.793 391.428 312.793Z" fill="#E6E6E6"/>
</g>
<mask id="mask1_1_111" style="mask-type:luminance" maskUnits="userSpaceOnUse" x="341" y="618" width="407" height="575">
<path d="M748 618H341V1192.8H748V618Z" fill="white"/>
</mask>
<g mask="url(#mask1_1_111)">
<path d="M634.653 1172.24L645.342 1172.15L650.074 1134.07L634.297 1134.19L634.653 1172.24Z" fill="#A0616A"/>
<path d="M666.795 1184.05L649.725 1173.6L649.66 1166.69L645.988 1166.91L634.61 1167.62L631.821 1167.79L629.796 1192.19L637.814 1192.13L639.18 1185.28L642.901 1192.09L664.151 1191.93C666.792 1191.91 668.913 1189.96 668.89 1187.58C668.876 1186.16 668.094 1184.84 666.795 1184.05Z" fill="#E6E6E6"/>
<path d="M580.272 1172.24L590.96 1172.15L595.692 1134.07L579.917 1134.19L580.272 1172.24Z" fill="#A0616A"/>
<path d="M612.414 1184.05L595.343 1173.6L595.279 1166.69L591.608 1166.91L580.229 1167.62L577.439 1167.79L575.414 1192.19L583.434 1192.13L584.8 1185.28L588.52 1192.09L609.771 1191.93C612.411 1191.91 614.532 1189.96 614.508 1187.58C614.496 1186.16 613.714 1184.84 612.414 1184.05Z" fill="#E6E6E6"/>
<path d="M664.565 665.079C661.439 669.827 663.168 675.964 668.426 678.786C670.836 680.079 673.566 680.443 676.122 680.01L676.131 680.021L689.863 693.602L705.996 688.323L684.831 667.455L684.756 667.526C684.021 665.126 682.307 662.965 679.747 661.592C674.489 658.77 667.691 660.33 664.565 665.079Z" fill="#A0616A"/>
<path d="M676.595 864.288L633.27 865.524L592.226 873.758C592.226 873.758 596.33 878.288 582.649 890.64C582.649 890.64 564.407 919.462 577.176 947.461L580.755 1020.69C580.755 1020.69 583.807 1026.49 581.057 1026.86C578.305 1027.24 578.502 1031.58 581.425 1034.41C584.347 1037.24 581.695 1039.94 581.695 1039.94C587.325 1043.33 583.172 1052.46 582.649 1059.46C582.649 1059.46 566.693 1138.4 578.883 1163.53L594.997 1164.44L622.262 1060.37L635.55 948.285L641.935 1058.63C641.935 1058.63 617.509 1134.37 632.934 1164.44L650.385 1163.53L680.244 1058.63C680.244 1058.63 685.269 1010.99 688.566 969.79C688.806 966.776 687.419 959.978 689.258 960.876C691.096 961.773 686.459 954.61 689.784 953.646C693.109 952.681 687.515 945.225 690.313 945.771C693.109 946.316 688.52 886.485 688.074 880.853C686.25 857.795 676.595 864.288 676.595 864.288Z" fill="#2F2E41"/>
<path d="M653.889 766.974C649.283 766.974 644.839 765.361 641.423 762.341C636.839 758.289 635.024 752.515 636.565 746.893C638.341 740.419 644.218 735.652 651.535 734.751L712.188 727.272L681.032 687.724L698.556 679.694L744.016 726.816C747.196 730.112 748.253 734.577 746.845 738.758C745.436 742.94 741.805 746.117 737.131 747.258L658.633 766.401C657.056 766.786 655.463 766.974 653.889 766.974Z" fill="#E6E6E6"/>
<path d="M691.675 880.765L581.905 885.312C578.89 881.177 579.707 874.963 583.929 867.18C599.87 837.794 587.764 782.202 579.618 753.255C577.334 745.133 583.468 737.059 592.703 736.225L603.053 735.29L612.62 708.923H646.127L660.027 723.261L683.618 736.199C679.324 776.132 661.028 832.521 687.093 860.799C692.793 866.983 694.41 873.671 691.675 880.765Z" fill="#E6E6E6"/>
<path d="M627.326 705.108C624.786 705.956 622.187 706.752 619.484 707.348C615.97 708.121 613.986 708.479 610.596 707.29C610.476 707.25 610.362 707.208 610.255 707.167C597.59 702.398 588.608 691.022 588.331 677.678C588.315 677.462 588.315 677.234 588.315 677.013C588.315 675.937 588.365 674.867 588.484 673.812C588.636 672.349 588.891 670.912 589.252 669.509L589.219 669.504C586.472 666.968 585.416 663.497 585.766 660.008C586.213 655.449 589.054 650.857 593.618 648.272C597.014 646.353 600.883 645.073 605.035 644.634C606.115 644.523 607.204 644.462 608.317 644.462H618.621C620.808 644.008 622.983 643.692 625.09 643.541H625.107C645.844 641.989 662.199 654.402 660.674 669.504C660.662 669.52 660.645 669.537 660.633 669.554C660.193 670.202 659.803 670.818 659.458 671.405C659.126 671.954 658.843 672.482 658.6 672.981C656.707 676.841 665.702 736.731 662.475 737.64C660.639 738.156 653.24 693.591 654.567 702.065C656.238 712.697 636.879 701.92 627.326 705.108Z" fill="#2F2E41"/>
<path d="M627.6 700.957C641.071 700.957 651.991 691.098 651.991 678.936C651.991 666.774 641.071 656.914 627.6 656.914C614.129 656.914 603.208 666.774 603.208 678.936C603.208 691.098 614.129 700.957 627.6 700.957Z" fill="#A0616A"/>
<path d="M648.81 669.623C648.404 669.818 648.003 669.996 647.596 670.174C647.172 670.359 646.748 670.542 646.319 670.716C638.156 674.057 631.507 674.428 627.474 669.623C627.36 667.109 626.739 664.611 625.615 662.29C625.824 664.86 625.044 667.482 623.462 669.623H615.34C606.973 674.638 602.68 679.242 608.488 695.702C608.865 696.783 611.458 735.197 612.199 738.15C599.534 733.764 588.608 687.194 588.331 674.923C588.315 674.724 588.315 674.516 588.315 674.311C588.315 673.322 588.365 672.337 588.484 671.368C588.636 670.022 588.891 668.7 589.252 667.411L589.219 667.406C586.472 665.075 585.416 661.882 585.766 658.673C587.879 656.174 590.506 654.043 593.517 652.4C596.211 651.217 599.053 650.258 602.002 649.523C602.075 649.508 602.138 649.493 602.211 649.478C603.104 649.259 604.019 649.059 604.934 648.886C606.804 648.534 608.702 648.27 610.644 648.106C610.787 648.1 610.921 648.09 611.046 648.09C611.843 648.09 612.582 648.29 613.226 648.632C613.232 648.632 613.232 648.637 613.244 648.637C613.712 648.886 614.13 649.218 614.458 649.616C615.018 650.258 615.34 651.065 615.34 651.941H624.39C624.722 651.941 625.056 651.951 625.389 651.966C637.992 652.42 648.122 657.287 648.771 668.471C648.799 668.859 648.81 669.237 648.81 669.623Z" fill="#2F2E41"/>
<path d="M595.306 670.51C604.181 670.51 611.375 664.014 611.375 656.001C611.375 647.989 604.181 641.493 595.306 641.493C586.432 641.493 579.238 647.989 579.238 656.001C579.238 664.014 586.432 670.51 595.306 670.51Z" fill="#2F2E41"/>
<path d="M617.367 649.291C615.542 657.132 606.534 661.822 597.918 659.903C589.302 657.985 584.039 650.124 586.164 642.344C588.289 634.564 598.746 636.807 605.612 631.732C615.328 624.55 619.83 638.717 617.367 649.291Z" fill="#2F2E41"/>
<path d="M646.935 815.523C645.673 810.119 639.796 806.661 633.81 807.801C631.068 808.323 628.786 809.726 627.232 811.607L627.217 811.605L606.925 810.011L599.016 823.761L630.244 826.169L630.245 826.071C632.588 827.387 635.47 827.927 638.381 827.373C644.369 826.233 648.198 820.928 646.935 815.523Z" fill="#A0616A"/>
<path d="M553.973 827.362C548.174 827.362 542.865 824.727 539.757 820.3C536.63 815.847 536.27 810.349 538.792 805.594L571.934 743.135C574.705 737.911 580.176 734.498 586.568 734.004C592.948 733.508 598.992 736.034 602.706 740.757C606.984 746.195 607.153 753.325 603.136 758.922L569.853 805.306L623.378 809.779L618.689 827.012L554.077 827.36L553.973 827.362Z" fill="#E6E6E6"/>
<path d="M678.595 687.054C678.595 687.036 678.597 687.02 678.6 687.006C678.637 686.771 678.918 686.726 679.009 686.711C679.499 686.633 682.227 686.692 682.602 687.326C682.717 687.521 683.414 687.469 683.924 687.431C684.282 687.404 684.652 687.376 684.973 687.401C693.203 688.017 699.542 687.906 703.303 687.085C706.151 686.462 708.535 684.863 710.013 682.586C711.489 680.314 711.882 677.672 711.086 675.131L708.837 667.858C708.06 665.347 706.238 663.271 703.705 662.018C701.156 660.754 698.214 660.48 695.424 661.244C690.213 662.673 682.682 666.939 677.282 670.266C677.062 670.402 676.749 670.548 676.447 670.69C676.189 670.811 675.824 670.982 675.652 671.095C675.69 671.172 675.673 671.241 675.665 671.268C675.608 671.481 675.377 671.517 675.086 671.563C674.906 671.592 674.484 671.658 674.413 671.765C674.402 671.78 674.412 671.815 674.419 671.835C674.503 672.06 674.39 672.178 674.318 672.228C674.099 672.375 673.89 672.247 673.509 672.014C673.219 671.836 672.537 671.419 672.324 671.548C672.269 671.581 672.011 671.817 672.328 673.227C672.42 673.629 672.331 673.988 672.075 674.266C671.456 674.938 670.041 674.924 669.982 674.923L666.169 674.603C659.133 674.011 652.286 676.307 647.385 680.904L647.327 680.959L643.657 681.814L646.459 691.627L650.23 690.751L650.324 690.789C656.053 693.146 662.8 692.065 670.954 687.485L673.27 686.184H673.353C674.878 686.182 676.763 686.262 677.08 686.651C677.131 686.712 677.158 686.783 677.16 686.857C677.391 686.968 678.13 687.053 678.595 687.054Z" fill="#FB2576"/>
<path d="M640.83 693.283C640.941 693.675 641.385 693.91 641.819 693.809L647.112 692.577C647.546 692.477 647.807 692.076 647.695 691.684L644.561 680.707C644.45 680.316 644.006 680.079 643.573 680.181L638.279 681.412C637.846 681.512 637.584 681.913 637.696 682.305L640.83 693.283Z" fill="#3F3D56"/>
<path d="M640.531 690.79C642.201 690.79 643.553 689.568 643.553 688.063C643.553 686.556 642.201 685.335 640.531 685.335C638.863 685.335 637.511 686.556 637.511 688.063C637.511 689.568 638.863 690.79 640.531 690.79Z" fill="#3F3D56"/>
<path d="M468.81 1179.16L454.972 1179.16L448.39 1130.97L468.813 1130.97L468.81 1179.16Z" fill="#FFB6B6"/>
<path d="M469.298 1192.19L426.744 1192.19V1191.71C426.744 1183.45 434.16 1176.75 443.306 1176.75L451.081 1171.43L465.584 1176.75H469.298V1192.19Z" fill="#E6E6E6"/>
<path d="M413.421 1179.16L399.584 1179.16L393 1130.97L413.424 1130.97L413.421 1179.16Z" fill="#FFB6B6"/>
<path d="M413.91 1192.19L371.356 1192.19V1191.71C371.356 1183.45 378.772 1176.75 387.918 1176.75L395.693 1171.43L410.196 1176.75H413.91V1192.19Z" fill="#E6E6E6"/>
<path d="M412.07 655.853C416.319 660.062 415.984 666.584 411.321 670.42C409.185 672.178 406.512 673.056 403.832 673.099L403.823 673.11L379.486 710.742L362.262 703.169L392.149 662.051L392.24 662.109C392.43 659.547 393.666 657.044 395.934 655.177C400.596 651.341 407.82 651.643 412.07 655.853Z" fill="#FFB6B6"/>
<path d="M398.62 860.762C398.62 860.762 377.159 1000.28 389.62 1027.47L391.346 1148.4H414.834L435.244 1034.03C435.244 1034.03 433.167 1031.22 437.321 1027.47C441.474 1023.72 441.474 1027.47 441.474 1023.72C441.474 1019.97 430.051 1006.84 430.051 1006.84L440.147 953.41L448.453 1148.4L470.258 1147.46C470.258 1147.46 491.025 1084.65 487.91 1055.59C487.91 1055.59 485.834 1035.91 485.834 1033.09C485.834 1030.28 482.719 1025.59 485.834 1022.78C488.949 1019.97 489.829 1012.9 488.351 1011.74C486.872 1010.59 486.872 1005.37 486.872 1005.37L509.715 929.973V872.235L398.62 860.762Z" fill="#2F2E41"/>
<path d="M472.336 687.174L441.186 689.987L426.11 708.022L407.96 720.038V819.532L411.711 842.578C403.552 847.872 391.943 856.662 396.605 866.217C396.605 866.217 485.294 892.16 510.215 869.66L508.137 812.792L514.428 734.606C515.675 719.107 504.741 704.935 488.208 700.619L475.066 697.188L472.336 687.174Z" fill="#E6E6E6"/>
<path d="M504.156 922.065C510.366 921.066 514.504 915.711 513.396 910.104C512.89 907.535 511.361 905.367 509.265 903.859L509.268 903.845L513.425 851.67L495.299 843.573L492.547 906.191L492.657 906.195C491.079 908.331 490.369 910.996 490.908 913.723C492.015 919.33 497.946 923.065 504.156 922.065Z" fill="#FFB6B6"/>
<path d="M514.432 870.764L494.291 871.673L486.66 834.792L469.525 732.789C468.535 726.902 470.371 720.89 474.56 716.291C478.749 711.694 484.93 708.908 491.518 708.648C503.965 708.149 514.592 716.553 515.708 727.757L524.034 811.336L514.432 870.764Z" fill="#E6E6E6"/>
<path d="M408.998 719.047L411.075 758.42L363.44 759.444C346.067 759.818 335.166 742.636 344.314 729.294L369.595 689.067L386.029 702.21L373.694 729.359L408.998 719.047Z" fill="#E6E6E6"/>
<path d="M450.58 680.257C466.644 680.257 479.667 668.499 479.667 653.997C479.667 639.494 466.644 627.736 450.58 627.736C434.517 627.736 421.495 639.494 421.495 653.997C421.495 668.499 434.517 680.257 450.58 680.257Z" fill="#FFB6B6"/>
<path d="M479.538 671.937C476.365 675.519 473.656 677.619 469.285 679.119C469.215 678.574 469.175 678.019 469.184 677.465C468.581 678.21 467.987 678.955 467.372 679.701C464.653 680.456 461.329 681.047 457.03 681.647L454.914 675.819C454.582 673.182 456.516 670.754 458.671 668.946C460.825 667.145 463.344 665.599 464.823 663.308C466.305 661.017 466.284 657.599 463.817 656.162C461.39 654.734 458.057 655.907 455.317 655.062C452.155 654.089 450.675 650.597 451.199 647.615C451.722 644.633 453.726 642.06 455.67 639.613C451.138 641.396 444.28 641.623 437.603 640.559C437.845 638.677 437.341 636.704 436.083 635.185C435.961 636.922 435.065 638.596 433.656 639.768C427.241 638.213 421.5 635.45 418.882 631.721C420.04 631.449 421.198 631.167 422.356 630.895C422.023 628.748 421.691 626.612 421.359 624.475C422.77 625.102 424.189 625.739 425.609 626.366C425.882 625.639 426.294 625.003 426.817 624.438C428.016 624.094 429.255 623.884 430.514 623.803C430.917 623.785 431.329 623.766 431.742 623.766C432.347 623.766 432.971 623.785 433.574 623.848C432.82 623.23 432.054 622.62 431.299 621.993C431.209 621.921 431.128 621.848 431.037 621.776C432.417 621.239 433.907 620.829 435.317 620.475C441.481 618.93 447.865 617.374 454.189 618.257C458.23 618.82 462.249 620.665 464.871 623.416C467.211 625.872 470.516 627.328 474.032 627.97C475.723 628.279 477.36 628.962 478.721 629.913C477.865 630.413 476.959 630.849 476.012 631.195C477.805 631.585 479.588 631.977 481.38 632.376C483.051 634.368 484.189 636.741 485.056 639.122C489.064 650.097 487.534 662.917 479.538 671.937Z" fill="#2F2E41"/>
<path d="M378.423 665.554C378.425 665.572 378.425 665.588 378.423 665.604C378.405 665.848 378.12 665.913 378.026 665.934C377.529 666.048 374.72 666.175 374.28 665.548C374.147 665.356 373.433 665.457 372.912 665.531C372.547 665.583 372.169 665.637 371.837 665.634C363.321 665.564 356.814 666.111 353.015 667.215C350.14 668.05 347.822 669.856 346.492 672.3C345.167 674.737 344.984 677.482 346.017 680.04L348.941 687.363C349.95 689.893 351.999 691.901 354.708 693.018C357.435 694.143 360.483 694.223 363.288 693.245C368.527 691.42 375.911 686.518 381.185 682.727C381.4 682.572 381.708 682.399 382.007 682.233C382.263 682.091 382.623 681.89 382.791 681.762C382.745 681.685 382.758 681.613 382.763 681.585C382.805 681.362 383.039 681.309 383.334 681.241C383.516 681.201 383.945 681.103 384.009 680.988C384.019 680.972 384.006 680.936 383.997 680.917C383.891 680.691 383.998 680.562 384.069 680.506C384.28 680.34 384.506 680.457 384.917 680.67C385.232 680.833 385.967 681.215 386.174 681.069C386.228 681.03 386.475 680.77 386.029 679.342C385.903 678.935 385.962 678.559 386.202 678.256C386.782 677.523 388.238 677.44 388.301 677.438L392.247 677.505C399.532 677.631 406.38 674.8 411.033 669.738L411.088 669.678L414.789 668.549L411.083 658.649L407.28 659.81L407.179 659.776C401.091 657.746 394.244 659.319 386.243 664.586L383.973 666.082L383.887 666.088C382.319 666.195 380.375 666.243 380.015 665.864C379.959 665.805 379.924 665.733 379.917 665.658C379.669 665.559 378.901 665.522 378.423 665.554Z" fill="#150050"/>
<path d="M416.732 656.562C416.584 656.167 416.108 655.954 415.672 656.088L410.331 657.717C409.895 657.85 409.658 658.28 409.807 658.676L413.951 669.748C414.099 670.144 414.576 670.356 415.013 670.222L420.353 668.593C420.79 668.46 421.025 668.03 420.877 667.636L416.732 656.562Z" fill="#3F3D56"/>
<path d="M417.477 664.722C419.198 664.722 420.592 663.462 420.592 661.91C420.592 660.357 419.198 659.097 417.477 659.097C415.756 659.097 414.362 660.357 414.362 661.91C414.362 663.462 415.756 664.722 417.477 664.722Z" fill="#3F3D56"/>
</g>
<mask id="mask2_1_111" style="mask-type:luminance" maskUnits="userSpaceOnUse" x="851" y="398" width="319" height="493">
<path d="M1170 398H851V891H1170V398Z" fill="white"/>
</mask>
<g mask="url(#mask2_1_111)">
<path d="M898.342 546.74C898.342 546.74 891.682 495.328 880.579 509.35C869.477 523.371 880.579 544.403 880.579 544.403L889.461 556.088L898.342 549.077V546.74Z" fill="#9F616A"/>
<path d="M924.988 563.098C924.988 563.098 902.784 537.392 898.342 542.066C893.902 546.74 880.579 549.077 882.799 558.425C885.02 567.773 931.65 598.152 931.65 598.152L924.988 563.098Z" fill="#150050"/>
<path opacity="0.1" d="M924.988 563.098C924.988 563.098 902.784 537.392 898.342 542.066C893.902 546.74 880.579 549.077 882.799 558.425C885.02 567.773 931.65 598.152 931.65 598.152L924.988 563.098Z" fill="#150050"/>
<path d="M1051.55 560.761V579.456C1051.55 579.456 1053.77 621.521 1040.45 619.184C1027.13 616.847 1033.79 581.794 1033.79 581.794L1036.01 560.761H1051.55Z" fill="#9F616A"/>
<path d="M1044.89 696.302C1044.89 696.302 1064.88 729.019 1071.54 731.356C1078.2 733.693 1113.73 754.725 1118.17 775.757L1149.25 817.822L1133.71 838.854C1133.71 838.854 1062.66 759.399 1042.67 752.388C1022.69 745.378 1002.7 710.323 1002.7 710.323L1044.89 696.302Z" fill="#9F616A"/>
<path d="M887.241 642.554C887.241 642.554 845.052 649.564 851.713 677.607C858.374 705.65 922.768 764.073 922.768 764.073L924.988 778.094L949.413 782.767L960.516 771.083L958.295 764.073C958.295 764.073 931.65 738.366 929.429 729.019C927.208 719.671 902.784 682.28 891.681 679.944L907.225 670.597L887.241 642.554Z" fill="#9F616A"/>
<path d="M1142.59 817.822C1142.59 817.822 1133.71 803.8 1147.03 806.137C1160.36 808.474 1169.24 810.81 1169.24 820.159C1169.24 829.505 1158.14 894.939 1144.81 890.266C1131.49 885.591 1142.59 864.56 1142.59 864.56C1142.59 864.56 1135.93 845.865 1131.49 843.527C1127.05 841.19 1127.05 829.505 1131.49 829.505C1135.93 829.505 1144.81 822.495 1142.59 817.822Z" fill="#2F2E41"/>
<path d="M953.854 766.409C953.854 766.409 953.854 754.724 962.736 766.409C971.618 778.094 976.059 787.441 967.176 794.452C958.295 801.462 927.209 817.822 927.209 817.822C927.209 817.822 893.902 824.832 898.342 808.474C898.342 808.474 920.547 796.789 920.547 787.442C920.547 778.094 920.547 761.736 927.209 766.409C933.87 771.083 953.854 773.421 953.854 766.409Z" fill="#2F2E41"/>
<path d="M996.042 591.141C996.042 591.141 1027.13 595.815 1024.91 642.554C1024.91 642.554 1064.88 684.617 1053.77 698.639C1042.67 712.66 1018.25 738.366 1009.36 731.356C1000.48 724.345 973.838 670.597 973.838 670.597C973.838 670.597 911.665 693.965 900.564 682.28C889.461 670.597 878.359 642.554 878.359 642.554L933.87 612.174L996.042 591.141Z" fill="#2F2E41"/>
<path d="M909.445 457.937C924.161 457.937 936.09 445.383 936.09 429.894C936.09 414.407 924.161 401.851 909.445 401.851C894.729 401.851 882.799 414.407 882.799 429.894C882.799 445.383 894.729 457.937 909.445 457.937Z" fill="#9F616A"/>
<path d="M929.428 432.231C929.428 432.231 944.973 457.937 949.413 460.274C953.854 462.611 918.327 485.98 918.327 485.98C918.327 485.98 918.327 455.601 907.225 448.589L929.428 432.231Z" fill="#9F616A"/>
<path d="M931.65 457.937C931.65 457.937 967.176 446.253 973.838 464.949C980.499 483.644 996.042 518.697 993.822 542.066C991.602 565.435 987.161 560.761 993.822 567.773C1000.48 574.783 1004.92 570.109 1002.7 579.456C1000.48 588.804 998.262 588.804 1000.48 593.478C1002.7 598.152 973.838 614.511 949.413 616.847L924.988 619.184C924.988 619.184 924.988 577.12 920.547 567.773C916.107 558.425 907.225 539.73 907.225 532.718V514.168C907.225 501.822 910.286 489.689 916.107 478.969C916.107 478.969 929.428 457.937 931.65 457.937Z" fill="#150050"/>
<path d="M958.295 467.285C958.295 467.285 1040.45 474.296 1049.33 497.665C1058.22 521.034 1062.66 567.773 1053.77 567.773C1044.89 567.773 1033.79 572.446 1031.57 567.773C1029.35 563.098 1020.47 516.36 1018.25 516.36C1016.03 516.36 949.413 509.35 949.413 509.35C949.413 509.35 920.547 471.959 958.295 467.285Z" fill="#150050"/>
<path d="M908.374 422.942C908.374 422.942 901.303 410.009 892.465 421.242C883.627 432.475 869.248 411.833 871.455 407.428C873.663 403.024 881.458 407.627 894.815 403.03C908.174 398.435 933.906 389.072 938.215 419.614C942.525 450.154 932.261 446.953 932.261 446.953C932.261 446.953 927.557 419.891 923.305 427.664L919.053 435.437L915.364 436.393L908.374 422.942Z" fill="#2F2E41"/>
</g>
<path d="M148.254 413.21L167.979 430.732L158.928 442.745L138.774 423.521C137.899 423.465 137.019 423.29 136.158 422.982C131.475 421.303 129.123 416.364 130.905 411.95C132.687 407.537 137.928 405.321 142.612 407C145.599 408.071 147.631 410.469 148.254 413.21Z" fill="#FFB6B6"/>
<path d="M83.5979 854.012L97.8278 854.011L104.597 802.293L83.595 802.295L83.5979 854.012Z" fill="#FFB6B6"/>
<path d="M83.097 868L126.856 867.998V867.476C126.855 858.613 119.23 851.428 109.824 851.428L101.83 845.715L86.9163 851.43H83.0964L83.097 868Z" fill="#2F2E41"/>
<path d="M116.766 839.853L130.103 844.527L155.584 798.277L135.898 791.38L116.766 839.853Z" fill="#FFB6B6"/>
<path d="M111.121 852.798L152.135 867.172L152.328 866.683C155.606 858.375 151.118 849.137 142.302 846.047L136.923 838.065L120.832 838.523L117.251 837.267L111.121 852.798Z" fill="#2F2E41"/>
<path d="M143.716 586.301L172.595 741.068L145.52 837.158L120.251 827.804L123.861 820.15L118.446 809.946L126.569 758.925L126.582 726.317L104.007 661.133L97.6893 768.278L107.617 821.852L105.748 837.158L76.0299 840.56L79.6398 829.505L60.6876 775.932L64.2976 765.728L39.0282 640.725L45.3455 600.758L143.716 586.301Z" fill="#2F2E41"/>
<path d="M58.4314 433.662H94.41L105.361 450.67L117.093 448.118L123.037 450.67L149.582 455.772L141.46 500.841L139.654 552.713L140.557 574.822C150.046 581.355 147.597 590.357 145.493 600.397C145.493 600.397 54.8215 623.761 40.3818 616.299V606.656L48.9553 542.083L17.3687 468.952C15.9828 458.94 27.2083 456.235 37.6744 454.071L48.5041 450.67L58.4314 433.662Z" fill="#150050"/>
<path d="M141.46 461.725L149.582 455.772L168.061 461.725L161.315 451.519V446.601L150.485 443.866L149.582 436.213L141.46 430.21L154.76 415.747L164.473 423.461L170.339 423.458L178.412 431.064L207.353 468.297C213.506 476.212 211.735 487.55 203.086 493.013C199.76 495.115 195.763 496.589 191.096 496.589H139.921L141.46 461.725Z" fill="#150050"/>
<path d="M79.8246 428.343C94.7579 428.343 106.864 416.936 106.864 402.865C106.864 388.794 94.7579 377.388 79.8246 377.388C64.8913 377.388 52.7855 388.794 52.7855 402.865C52.7855 416.936 64.8913 428.343 79.8246 428.343Z" fill="#FFB6B6"/>
<path d="M27.8494 630.772L27.2078 605.237L42.6382 602.856L42.2971 629.877C42.8692 630.502 43.356 631.214 43.7283 632.009C45.7534 636.327 43.6791 641.376 39.0953 643.284C34.5115 645.193 29.1539 643.237 27.1288 638.919C25.8373 636.164 26.2188 633.116 27.8494 630.772Z" fill="#FFB6B6"/>
<path d="M27.394 460.792C21.3066 460.463 16.3849 465.401 17.1155 471.106L2.34845 548.634L0 553.293L2.69321 555.914L3.25948 561.921L25.7432 617.873L53.8397 618.853L43.3728 501.799L36.0969 467.019C34.8099 463.468 31.369 461.007 27.394 460.792Z" fill="#150050"/>
<path d="M55.9053 618.089C56.1754 636.473 47.783 640.401 34.2458 636.554C22.7931 633.3 12.5863 629.361 12.5863 618.089C12.5863 606.818 19.5482 590.149 34.2458 595.737C47.3962 588.934 62.5022 605.056 55.9053 618.089Z" fill="#FB2576"/>
<path d="M33.4661 596.195C31.7378 593.23 31.619 589.61 33.2247 586.574C34.655 583.871 37.4872 581.858 40.6091 581.225C42.308 580.881 43.0341 583.34 41.3288 583.685C38.9035 584.177 37.4839 593.578 36.3209 595.656C35.0696 597.891 34.5246 592.714 35.8039 594.908C36.6434 596.347 34.3063 597.636 33.4661 596.195Z" fill="#3F3D56"/>
<path d="M164.203 396.145C164.203 407.416 156.08 418.457 142.544 414.61C131.09 411.355 116.495 412.705 127.842 393.698C112.713 386.57 127.846 368.205 142.544 373.793C155.693 366.99 164.203 384.874 164.203 396.145Z" fill="#7AA874"/>
<path d="M141.763 374.25C136.496 375.412 139.203 375.912 141.523 369.382C142.539 366.517 145.785 364.666 148.907 364.033C150.605 363.689 151.331 366.146 149.627 366.493C147.201 366.985 145.117 368.419 143.955 370.497C142.703 372.731 142.822 370.77 144.101 372.963C144.94 374.402 142.603 375.691 141.763 374.25Z" fill="#3F3D56"/>
<path d="M102.409 382.442C104.048 383.203 105.586 384.153 106.972 385.246C107.376 385.567 103.556 385.994 103.934 386.327C101.223 390.437 112.52 395.581 107.716 395.83C106.758 393.906 91.9698 389.404 90.3685 387.919C90.5955 389.629 96.584 391.756 96.3698 393.454C90.9863 393.134 78.9842 391.233 72.4158 388.703C76.373 396.133 76.4029 401.973 67.3728 404.146C60.6144 404.146 55.896 410.455 58.1691 416.451L59.8084 420.777L53.5047 414.837C50.8831 412.366 45.8057 406.523 44.1346 400.284C42.9345 395.803 43.9121 391.107 46.4101 387.131C46.5024 386.984 46.586 386.841 46.659 386.707C45.2343 387.325 43.7467 387.8 42.221 388.121C42.158 385.531 52.8238 380.732 53.5046 379.199C56.6692 372.06 52.0548 372.072 64.8512 372.072C65.9544 371.379 68.1705 372.562 71.1549 372.072C76.6473 371.169 78.9176 367.637 85.7368 368.987C91.6216 370.152 97.3477 371.861 101.789 373.605L103.934 374.448C105.233 376.408 105.762 378.237 105.687 379.9C105.573 379.876 105.447 379.853 105.333 379.841C103.102 379.544 104.602 381.991 102.409 382.442Z" fill="#2F2E41"/>
</svg>
